<?xml version="1.0" encoding="utf-8"?>
<!-- Generator: Adobe Illustrator 26.0.2, SVG Export Plug-In . SVG Version: 6.00 Build 0)  -->
<svg version="1.1" id="Layer_1" xmlns="http://www.w3.org/2000/svg" xmlns:xlink="http://www.w3.org/1999/xlink" x="0px" y="0px"
	 viewBox="0 0 434.1 202.7" style="enable-background:new 0 0 434.1 202.7;" xml:space="preserve">
<style type="text/css">
	.st0{fill:#FFFFFF;}
</style>
<g>
	<g>
		<path class="st0" d="M173.1,82c0-1.9-0.4-3.6-1.2-5.2c-0.8-1.6-2.1-2.8-3.8-3.7c-1.7-0.9-4-1.4-6.7-1.4h-11.1v20.2h11.1
			c4.1,0,7.1-0.9,8.9-2.7S173.1,85,173.1,82z"/>
	</g>
	<g>
		<path class="st0" d="M235.9,121.7c-0.7,0.7-1.2,1.5-1.5,2.3c-0.3,0.9-0.5,1.9-0.5,3.2c0,1,0.3,2,0.9,2.8c0.6,0.8,1.5,1.5,2.6,2.1
			c1.1,0.5,2.5,1,4.1,1.3c1.6,0.3,3.5,0.5,5.6,0.5c2.8,0,5.1-0.3,6.9-0.9c1.7-0.6,3.1-1.4,3.9-2.4c0.9-1,1.3-2.2,1.3-3.4
			c0-1.3-0.2-2.4-0.7-3.3c-0.5-0.9-1.5-1.5-3-1.9c-1.5-0.4-3.9-0.6-7-0.6c-2.1,0-4.1-0.1-5.9-0.3c-1.7-0.2-3.3-0.5-4.7-0.9
			C237.1,120.6,236.4,121.2,235.9,121.7z"/>
	</g>
	<g>
		<path class="st0" d="M298.5,88.5c-1-1.1-2.1-2-3.4-2.6c-1.3-0.6-2.8-0.9-4.5-0.9c-1.5,0-2.9,0.2-4.2,0.7c-1.3,0.5-2.5,1.3-3.6,2.3
			c-1.1,1.1-2,2.4-2.8,4c-0.8,1.6-1.3,3.5-1.6,5.7h23.1c0-1.9-0.3-3.7-0.8-5.3C300.2,90.9,299.5,89.6,298.5,88.5z"/>
	</g>
	<g>
		<path class="st0" d="M249.9,86.6c-1.4-0.8-3-1.2-4.7-1.2c-1.8,0-3.4,0.4-4.7,1.2c-1.4,0.8-2.5,1.9-3.3,3.2
			c-0.8,1.3-1.2,2.8-1.2,4.5c0,1.6,0.4,3.1,1.2,4.5c0.8,1.4,1.9,2.5,3.3,3.3c1.4,0.8,3,1.2,4.7,1.2c1.8,0,3.4-0.4,4.7-1.2
			c1.4-0.8,2.5-1.9,3.3-3.3c0.8-1.4,1.2-2.9,1.2-4.5c0-1.7-0.4-3.2-1.2-4.5C252.4,88.5,251.3,87.4,249.9,86.6z"/>
	</g>
	<g>
		<path class="st0" d="M211,87.6c-1.8-1.4-4-2.1-6.4-2.1c-2.4,0-4.5,0.7-6.4,2.1c-1.9,1.4-3.3,3.3-4.4,5.8c-1.1,2.5-1.6,5.3-1.6,8.5
			c0,3.2,0.5,6,1.6,8.5c1.1,2.5,2.5,4.4,4.4,5.8c1.9,1.4,4,2.1,6.4,2.1c2.5,0,4.6-0.7,6.4-2.1c1.8-1.4,3.3-3.3,4.4-5.8
			c1.1-2.5,1.6-5.3,1.6-8.5c0-3.2-0.5-6-1.6-8.5C214.3,90.9,212.8,89,211,87.6z"/>
	</g>
	<g>
		<path class="st0" d="M417.9,3.8H14.2C7.8,3.8,2.6,9.1,2.6,15.5v171.7c0,6.4,5.2,11.7,11.7,11.7h403.7c6.4,0,11.7-5.2,11.7-11.7
			V15.5C429.6,9.1,424.3,3.8,417.9,3.8z M66.7,77.5c-0.2-0.4-0.5-1-1-1.9c-1.5-2.1-3.1-3.5-4.7-4.2c-1.6-0.7-3.3-1.1-5.1-1.1
			c-2.4,0-4.6,0.5-6.5,1.6c-1.9,1.1-3.6,2.6-5,4.7c-1.4,2.1-2.4,4.6-3.1,7.5c-0.7,2.9-1.1,6.3-1.1,10c0,3.6,0.4,6.9,1.2,9.8
			c0.8,2.9,2,5.5,3.4,7.6c1.4,2.1,3.1,3.8,5.1,5c1.9,1.2,4,1.7,6.2,1.7c1.5,0,3-0.3,4.5-0.8c1.4-0.6,2.8-1.4,4-2.4
			c1.2-1.1,2.3-2.3,3.1-3.7l4.8,3.1c-1.8,3.1-4,5.4-6.6,7c-2.6,1.6-5.7,2.4-9.5,2.4c-3.1,0-6-0.6-8.7-1.7c-2.7-1.1-5.1-2.9-7.1-5.3
			c-2.1-2.4-3.7-5.4-4.8-9.1c-1.2-3.7-1.7-8.1-1.7-13.2c0-4.5,0.4-8.4,1.3-11.7c0.9-3.3,2-6.2,3.5-8.4c1.5-2.3,3.2-4.1,5.1-5.4
			c1.9-1.3,3.9-2.3,6-2.9c2.1-0.6,4.2-0.9,6.3-0.9c4.2,0,7.7,1,10.7,3.1c2.9,2.1,5.2,4.8,6.6,8.2l-5.5,2.6L67,79.5l-0.3-0.6
			C66.9,78.4,66.9,77.9,66.7,77.5z M91.5,116.6c-1.1,1-2.4,1.6-3.9,1.6c-1.5,0-2.8-0.5-3.9-1.5c-1-1-1.6-2.3-1.6-3.7
			c0-1.5,0.6-2.7,1.7-3.8c1.1-1,2.4-1.6,3.8-1.6c1.4,0,2.7,0.5,3.8,1.6c1.1,1,1.7,2.3,1.7,3.8C93.1,114.3,92.6,115.6,91.5,116.6z
			 M91.5,87.5c-1.1,1-2.4,1.6-3.9,1.6c-1.4,0-2.7-0.5-3.8-1.6c-1.1-1-1.7-2.3-1.7-3.7c0-1.5,0.6-2.7,1.7-3.8c1.1-1,2.4-1.6,3.8-1.6
			c1.4,0,2.7,0.5,3.8,1.6c1.1,1,1.7,2.3,1.7,3.8C93.1,85.3,92.6,86.5,91.5,87.5z M107,126.8l-5.4-2.7l28.8-62.4l5.5,2.9L107,126.8z
			 M174.1,123l-12.7-25.3h-11.1V123h-6.5V65.6h16.9c4.5,0,8.2,0.7,11,2c2.8,1.4,4.8,3.3,6.1,5.7c1.3,2.5,1.9,5.3,1.9,8.7
			c0,2.1-0.5,4.3-1.4,6.4c-1,2.1-2.3,4-4,5.6c-1.7,1.6-3.8,2.7-6.2,3.3l13.3,25.6H174.1z M221.5,113.2c-1.7,3.3-3.9,5.9-6.9,7.7
			c-2.9,1.9-6.3,2.8-10.1,2.8c-3.8,0-7.2-0.9-10.1-2.8c-2.9-1.9-5.2-4.4-6.9-7.7c-1.7-3.3-2.5-7-2.5-11.3c0-4.3,0.8-8.1,2.5-11.4
			c1.7-3.3,3.9-5.9,6.9-7.7c2.9-1.9,6.3-2.8,10.1-2.8c3.8,0,7.2,0.9,10.1,2.8c2.9,1.9,5.2,4.4,6.9,7.7c1.7,3.3,2.5,7.1,2.5,11.4
			C223.9,106.1,223.1,109.9,221.5,113.2z M259.9,94.3c0,2.6-0.6,5.1-1.8,7.3c-1.2,2.2-2.9,3.9-5.1,5.2c-2.2,1.3-4.8,1.9-7.9,1.9
			c-2.4,0-4.6-0.4-6.5-1.3c-0.3,0.3-0.5,0.6-0.7,0.9c-0.4,0.5-0.6,1-0.8,1.5c-0.2,0.5-0.2,1-0.2,1.5c0,1,0.4,1.8,1.2,2.4
			c0.8,0.6,2.1,1.1,4,1.3c1.9,0.3,4.5,0.4,7.7,0.4c3.3,0,5.9,0.3,7.9,0.8c2,0.5,3.6,1.3,4.6,2.2c1.1,1,1.8,2.1,2.3,3.4
			c0.4,1.3,0.6,2.7,0.6,4.2c0,1.7-0.3,3.2-1,4.7c-0.6,1.5-1.7,2.8-3.1,4c-1.4,1.2-3.3,2.1-5.6,2.8c-2.3,0.7-5.2,1.1-8.6,1.1
			c-2.9,0-5.6-0.2-8-0.7c-2.4-0.5-4.4-1.1-6.1-2c-1.7-0.9-3-2-3.9-3.3c-0.9-1.3-1.3-2.9-1.3-4.8c0-1.7,0.4-3.2,1.1-4.6
			c0.7-1.3,1.7-2.5,2.9-3.3c0.8-0.6,1.7-1.1,2.6-1.5c-0.1,0-0.1-0.1-0.2-0.1c-1-0.6-1.7-1.4-2.2-2.3c-0.5-0.9-0.7-2-0.7-3.2
			c0-1.6,0.4-3.1,1.3-4.6c0.6-1.1,1.5-2.1,2.4-3.1c-1.2-1-2.2-2.2-2.9-3.6c-1.2-2.2-1.8-4.6-1.8-7.3s0.6-5.1,1.8-7.2
			s2.9-3.9,5.1-5.2c2.2-1.3,4.8-1.9,7.8-1.9c3.1,0,5.7,0.6,7.9,1.9c1,0.6,1.9,1.3,2.7,2.1c1.5-1.3,3.1-2.4,4.7-3.1
			c1.9-0.8,4.2-1.2,6.9-1l0.8,5.4c-2-0.2-3.9-0.1-5.7,0.2c-1.5,0.3-2.9,0.8-4.2,1.7C259.3,89.4,259.9,91.8,259.9,94.3z M308.2,101.4
			c0,0.5-0.1,1-0.1,1.5h-29.9c0.1,2.7,0.6,5,1.4,7c0.8,2,1.8,3.6,3.1,4.8c1.3,1.2,2.8,2.2,4.5,2.8c1.7,0.6,3.5,0.9,5.4,0.9
			c1.5,0,2.9-0.2,4.1-0.5c1.3-0.3,2.5-0.9,3.6-1.6c1.1-0.7,2.2-1.6,3.1-2.6l3.7,3.6c-1.2,1.4-2.5,2.6-4,3.6c-1.5,1-3.1,1.7-4.9,2.2
			c-1.8,0.5-3.7,0.7-5.8,0.7c-3.1,0-5.9-0.5-8.4-1.4c-2.5-0.9-4.7-2.3-6.5-4.2c-1.8-1.8-3.2-4.1-4.2-6.8c-1-2.7-1.5-5.8-1.5-9.3
			c0-3.5,0.5-6.7,1.5-9.4c1-2.7,2.4-5,4.1-6.9c1.7-1.9,3.8-3.3,6.2-4.3c2.4-1,4.9-1.5,7.5-1.5c2.4,0,4.6,0.4,6.7,1.2
			c2.1,0.8,3.9,2,5.4,3.6c1.5,1.6,2.7,3.7,3.6,6.2c0.9,2.5,1.3,5.5,1.3,8.9C308.2,100.4,308.2,100.9,308.2,101.4z M349.4,89.7
			l-0.4,0.8l-0.6-0.4c-0.1-0.5-0.3-1-0.6-1.4c-0.2-0.4-0.8-1-1.6-1.6c-1-0.6-1.9-1-2.7-1.2c-0.8-0.2-1.8-0.3-2.8-0.3
			c-1.5,0-3.1,0.3-4.6,0.9c-1.5,0.6-2.9,1.5-4.2,2.7c-1.3,1.2-2.3,2.8-3,4.7c-0.7,1.9-1.1,4.2-1.1,6.8V123h-6.7V80.9h6.9l-0.2,7.9
			c0.3-0.7,0.6-1.4,1-2c0.9-1.5,2-2.7,3.3-3.7c1.3-1,2.7-1.8,4.2-2.3c1.5-0.5,3.1-0.8,4.8-0.8c2.2,0,4.2,0.4,6.1,1.2
			c1.9,0.8,3.5,1.9,5,3.5L349.4,89.7z M391.7,117.1c-1.3,2-3.2,3.6-5.8,4.8c-2.6,1.2-5.8,1.8-9.8,1.8c-2.3,0-4.6-0.2-6.7-0.7
			c-2.1-0.5-4.1-1.2-6-2.2c-1.9-1-3.6-2.2-5.2-3.7l3.7-6.3l0.6-0.8l0.6,0.4c0.1,0.5,0.3,1,0.4,1.5c0.2,0.5,0.6,1.2,1.2,1.9
			c1.3,1.3,2.8,2.3,4.6,3.2c1.8,0.8,4.1,1.2,6.9,1.2c2.3,0,4.2-0.3,5.8-0.8s2.8-1.3,3.6-2.3c0.9-1,1.3-2.2,1.3-3.5
			c0-0.9-0.2-1.7-0.6-2.4c-0.4-0.7-1-1.4-1.8-2c-0.8-0.6-1.9-1.2-3.3-1.8c-1.4-0.6-3-1.2-5-1.8c-3.2-0.9-6-2-8.4-3.2
			c-2.4-1.2-4.2-2.6-5.5-4.3c-1.3-1.6-1.9-3.5-1.9-5.5c0-2.1,0.6-4,1.7-5.5c1.2-1.6,2.9-2.8,5.2-3.7c2.3-0.9,5.1-1.3,8.5-1.3
			c2,0,3.7,0.1,5.3,0.4c1.6,0.3,3.1,0.7,4.4,1.2c1.3,0.6,2.6,1.2,3.7,2.1c1.1,0.8,2.2,1.8,3.3,2.9l-3.8,4.6l-0.6,0.7l-0.5-0.5
			c-0.1-0.5-0.2-1-0.4-1.4c-0.2-0.5-0.7-1-1.3-1.7c-1.4-1.1-3-1.9-4.8-2.5c-1.8-0.6-3.5-0.9-5.2-0.9c-2.5,0-4.6,0.4-6.4,1.3
			c-1.8,0.8-2.7,2.2-2.7,3.9c0,0.9,0.3,1.8,1,2.7c0.6,0.9,1.8,1.8,3.5,2.7c1.7,0.9,4.2,1.8,7.4,2.7c3.5,1.1,6.3,2.2,8.4,3.3
			c2.1,1.1,3.7,2.4,4.6,3.9c1,1.5,1.4,3.2,1.4,5.2C393.6,112.9,392.9,115.1,391.7,117.1z"/>
	</g>
</g>
</svg>
